0
SECTION
2
HEADER
9
$INSUNITS
70
4
9
$ACADVER
1
AC1014
9
$HANDSEED
5
FFFF
0
ENDSEC
0
SECTION
2
TABLES
0
TABLE
2
VPORT
5
8
100
AcDbSymbolTable
0
ENDTAB
0
TABLE
2
LTYPE
5
5
100
AcDbSymbolTable
0
LTYPE
5
14
100
AcDbSymbolTableRecord
100
AcDbLinetypeTableRecord
2
BYBLOCK
70
0
0
LTYPE
5
15
100
AcDbSymbolTableRecord
100
AcDbLinetypeTableRecord
2
BYLAYER
70
0
0
ENDTAB
0
TABLE
2
LAYER
5
2
100
AcDbSymbolTable
70
2
0
LAYER
5
50
100
AcDbSymbolTableRecord
100
AcDbLayerTableRecord
2
0
70
0
6
CONTINUOUS
0
ENDTAB
0
TABLE
2
STYLE
5
3
100
AcDbSymbolTable
70
1
0
STYLE
5
11
100
AcDbSymbolTableRecord
100
AcDbTextStyleTableRecord
2
STANDARD
70
0
0
ENDTAB
0
TABLE
2
VIEW
5
6
100
AcDbSymbolTable
70
0
0
ENDTAB
0
TABLE
2
UCS
5
7
100
AcDbSymbolTable
70
0
0
ENDTAB
0
TABLE
2
APPID
5
9
100
AcDbSymbolTable
70
2
0
APPID
5
12
100
AcDbSymbolTableRecord
100
AcDbRegAppTableRecord
2
ACAD
70
0
0
ENDTAB
0
TABLE
2
DIMSTYLE
5
A
100
AcDbSymbolTable
70
1
0
ENDTAB
0
TABLE
2
BLOCK_RECORD
5
1
100
AcDbSymbolTable
70
1
0
BLOCK_RECORD
5
1F
100
AcDbSymbolTableRecord
100
AcDbBlockTableRecord
2
*MODEL_SPACE
0
BLOCK_RECORD
5
1B
100
AcDbSymbolTableRecord
100
AcDbBlockTableRecord
2
*PAPER_SPACE
0
ENDTAB
0
ENDSEC
0
SECTION
2
BLOCKS
0
BLOCK
5
20
100
AcDbEntity
100
AcDbBlockBegin
2
*MODEL_SPACE
0
ENDBLK
5
21
100
AcDbEntity
100
AcDbBlockEnd
0
BLOCK
5
1C
100
AcDbEntity
100
AcDbBlockBegin
2
*PAPER_SPACE
0
ENDBLK
5
1D
100
AcDbEntity
100
AcDbBlockEnd
0
ENDSEC
0
SECTION
2
ENTITIES
0
LWPOLYLINE
5
100
100
AcDbEntity
8
0
100
AcDbPolyline
90
52
70
1
43
0.0
10
21.43913210046863
20
-128.91439841116386
10
21.524636978314806
20
-129.3993213039212
42
0.41421362522841121
10
22.683092939105475
20
-130.21048110082401
10
26.607782087731149
20
-129.51845254871526
42
-0.41538090542122968
10
27.766921993401603
20
-130.33353689026376
10
27.765989005773591
20
-135.38701657721271
42
0.41426572827759334
10
28.765982468174872
20
-136.38720119999999
10
40.426584691832332
20
-136.38720119999999
42
0.46630765776791716
10
41.411392445065388
20
-135.21355302358555
10
38.902026692312816
20
-120.98223254539411
42
-0.99999998946328783
10
39.88683444737552
20
-120.80858437935625
10
42.488056773573334
20
-135.56084937641452
42
0.36397023462626121
10
43.472864526806347
20
-136.38720119999999
10
59.707974792062963
20
-136.38720119999999
42
0.54057493862641515
10
60.166232361558549
20
-135.6872012
42
-1.5275252316519321
10
63.832292917523219
20
-135.6872012
42
0.54057493862641293
10
64.290550487018805
20
-136.38720119999999
10
98.114481500000011
20
-136.38720119999999
42
-0.088245755691898159
10
134.09026714429547
20
-142.78645497624782
10
141.71138766073906
20
-145.56031596786647
42
0.41431171960302321
10
142.99321498728006
20
-144.9623285590105
10
148.10680061993102
20
-130.89820444924658
42
0.034989773579332861
10
148.95307956178283
20
-127.94160213272819
42
0.56232764166497551
10
148.33086143499256
20
-127.35598085591738
42
-1.4598168383204286
10
148.70392712587488
20
-123.64479297163811
42
0.56232764166491112
10
149.43025660826032
20
-123.19473390865002
10
149.43248952738537
20
-64.436516907089583
42
0.49031442121579644
10
148.80750137093051
20
-63.952378656699906
42
-0.57127869143164345
10
146.98016898998213
20
-62.125001374066628
42
0.49031442121579738
10
146.49604609692088
20
-61.500001321576036
10
89.832767307110487
20
-61.500000000000014
42
-0.40402622604081928
10
88.833376480066732
20
-60.534899495995745
10
88.753212212304945
20
-58.239295173583926
42
0.41421356191148678
10
87.718921890840406
20
-57.274803842480878
10
72.824961476344583
20
-57.794912366887971
42
0.41421356393565251
10
71.860470143852723
20
-58.829202693739148
10
71.937258211075488
20
-60.866705514886014
42
-0.42529024333120785
10
71.327381326466394
20
-61.500000000000021
10
45.859858426843736
20
-61.500000797673678
42
0.54057481604162427
10
45.401600803382138
20
-62.200000638138931
42
-0.68187461650801107
10
42.768570246893233
20
-64.833030277982346
42
0.54057493862641293
10
42.068570246893238
20
-65.291287847477946
10
42.068570246893238
20
-83.544854441452827
42
-0.36397023436033415
10
41.242218424232753
20
-84.529662194522757
10
34.708450988589419
20
-85.681741676861108
42
0.41421356209798599
10
33.897291412695871
20
-86.840197606345541
10
36.413870918131806
20
-101.11242931965583
42
-1.0000424353929047
10
35.429055798000313
20
-101.28603570594295
10
34.263337736280391
20
-94.674920006545705
42
0.41421356237309503
10
33.104881806632847
20
-93.863760429727151
10
16.781693170258102
20
-96.74197898594791
42
0.41421356213249533
10
15.970533594385014
20
-97.900434915548374
0
LINE
5
101
100
AcDbEntity
8
0
100
AcDbLine
10
148.08484559100589
20
-130.95858835084096
30
0
11
148.10680061993102
21
-130.89820444924658
31
0
0
ARC
5
102
100
AcDbEntity
8
0
100
AcDbCircle
10
36.442411570759006
20
-104.1536766675635
30
0
40
0.49999999999998734
210
0
220
-0
230
1
100
AcDbArc
50
9.9999999271360647
51
190.00486255602331
0
ARC
5
103
100
AcDbEntity
8
0
100
AcDbCircle
10
38.87348604151552
20
-117.94098520786434
30
0
40
0.49999999999999167
210
0
220
0
230
1
100
AcDbArc
50
-170.00000007286567
51
9.9999999345027213
0
LINE
5
104
100
AcDbEntity
8
0
100
AcDbLine
10
35.950007694147075
20
-104.24050075579672
30
0
11
38.381082164899006
21
-118.0278092960716
31
0
0
LINE
5
105
100
AcDbEntity
8
0
100
AcDbLine
10
36.934815447375513
20
-104.06685257935624
30
0
11
39.365889918120864
21
-117.85416111959377
31
0
0
LWPOLYLINE
5
106
100
AcDbEntity
8
0
100
AcDbPolyline
90
4
70
1
43
0.0
10
110
20
-99
10
126.00000000000001
20
-115
10
126.00000000000001
20
-99
10
110
20
-115
0
ENDSEC
0
SECTION
2
OBJECTS
0
DICTIONARY
5
C
100
AcDbDictionary
3
ACAD_GROUP
350
D
3
ACAD_MLINESTYLE
350
17
0
DICTIONARY
5
D
100
AcDbDictionary
0
DICTIONARY
5
1A
330
C
100
AcDbDictionary
0
DICTIONARY
5
17
100
AcDbDictionary
0
ENDSEC
0
EOF
